<?xml version="1.0" encoding="UTF-8" standalone="no"?><!DOCTYPE svg PUBLIC "-//W3C//DTD SVG 1.1//EN" "http://www.w3.org/Graphics/SVG/1.1/DTD/svg11.dtd"><svg width="100%" height="100%" viewBox="0 0 7441 8445" version="1.1" xmlns="http://www.w3.org/2000/svg" xmlns:xlink="http://www.w3.org/1999/xlink" xml:space="preserve" xmlns:serif="http://www.serif.com/" style="fill-rule:evenodd;clip-rule:evenodd;stroke-linejoin:round;stroke-miterlimit:2;"><rect id="LOGO-ORIGINAL" serif:id="LOGO ORIGINAL" x="0" y="0" width="7440.945" height="8444.882" style="fill:none;"/><g id="Capa-1" serif:id="Capa 1"></g><g><path d="M3114.103,4432.206l480.459,0l0,-1273.965l-480.459,1273.965Zm-947.531,-1464c453.646,0 831.318,285.808 984.777,681.07l-103.545,0c-183.996,-361.052 -554.214,-620.261 -967.643,-620.261c-513.986,0 -911.022,402.107 -905.062,929.629c6.697,589.099 504.306,1096.866 1084.581,1096.866c423.855,0 687.561,-225.003 858.137,-674.231l476.746,-1260.287l0,-41.044c0,-85.132 -79.699,-88.176 -93.108,-88.176l0,-13.683l280.087,0l0,13.683c-20.122,0 -86.411,9.883 -86.411,88.176l0,1924.63c0,71.449 33.526,88.176 93.108,88.176l0,13.683l-286.784,0l0,-13.683c60.34,0 93.108,-16.727 93.108,-88.176l0,-558.689l-486.425,0c-196.659,473.551 -501.329,670.431 -925.179,670.431c-603.375,0 -1067.458,-490.278 -1067.458,-1075.576c0,-589.094 473.768,-1072.538 1051.071,-1072.538" style="fill:#1d1d1b;fill-rule:nonzero;"/><path d="M4775.753,4724.85c0,190.793 80.456,377.784 277.11,377.784c216.775,0 333.719,-142.898 333.719,-357.262l0,-1685.949c0,-67.654 -67.042,-67.654 -87.153,-67.654l0,-13.683l190.698,0l0,13.683c-23.841,0 -90.136,0 -90.136,67.654l0,1685.949c0,231.842 -126.634,370.946 -347.129,370.946c-243.583,0 -377.672,-180.148 -377.672,-391.468l0,-1644.905c0,-71.455 -33.515,-88.176 -93.855,-88.176l0,-13.683l288.283,0l0,13.683c-60.34,0 -93.866,16.722 -93.866,88.176l0,1644.905Z" style="fill:#1d1d1b;fill-rule:nonzero;"/><path d="M5533.607,5106.436l0,-13.683c29.802,0 56.61,0 56.61,-71.449l0,-1988.489c-19.364,-44.839 -71.508,-41.044 -83.428,-41.044l0,-13.683l286.795,0l0,13.683c-46.183,0 -97.59,17.484 -79.704,85.138l507.284,1921.592l0,-1935.275c0,-71.455 -26.819,-71.455 -57.362,-71.455l0,-13.683l128.123,0l0,13.683c-30.533,0 -57.351,0 -57.351,71.455l0,1951.234c30.538,71.449 87.153,78.294 90.872,78.294l0,13.683l-286.784,0l0,-13.683c46.183,0 101.304,3.801 81.187,-75.25l-516.222,-1964.166l0,1967.967c0,71.449 26.819,71.449 56.615,71.449l0,13.683l-126.634,0Z" style="fill:#1d1d1b;fill-rule:nonzero;"/><path d="M3796.782,2978.089l0,13.683c60.34,0 93.855,16.716 93.855,88.176l0,1924.63c0,71.449 -33.515,88.176 -93.855,88.176l0,13.683l288.283,0l0,-13.683c-57.357,0 -93.855,-16.727 -93.855,-88.176l0,-953.957l212.677,0c115.466,0 160.16,106.422 160.16,194.593l13.409,0l0,-405.902l-13.409,0c0,88.165 -44.694,197.626 -160.16,197.626l-212.677,0l0,-956.99c0,-78.294 67.036,-88.176 87.153,-88.176l313.603,0c119.191,0 160.16,110.98 160.16,197.631l13.404,0l0,-211.315l-768.748,0Z" style="fill:#1d1d1b;fill-rule:nonzero;"/></g><g><g><text x="2331.348px" y="5472.489px" style="font-family:'BellotaText-Regular', 'Bellota Text';font-size:194.781px;fill:#1d1d1b;">E<tspan x="2580.036px 2815.089px 3064.751px 3332.138px 3609.654px 3794.454px " y="5472.489px 5472.489px 5472.489px 5472.489px 5472.489px 5472.489px ">STUDIO</tspan></text></g><g><g transform="matrix(194.78078,0,0,194.78078,5889.954149,5472.488635)"></g><text x="4195.361px" y="5472.489px" style="font-family:'BellotaText-Regular', 'Bellota Text';font-size:194.781px;fill:#1d1d1b;">C<tspan x="4443.123px 4673.548px 4899.299px 5127.387px 5352.164px 5512.079px 5734.519px " y="5472.489px 5472.489px 5472.489px 5472.489px 5472.489px 5472.489px 5472.489px ">REATIVO</tspan></text></g></g></svg>