<svg width="204" height="133" viewBox="0 0 204 133" fill="none" xmlns="http://www.w3.org/2000/svg">
<path d="M91.0816 108.916H91.1235L92.6899 112.6H92.4437L91.925 111.379H90.2801L89.7667 112.6H89.5257L91.0816 108.916ZM91.2911 109.848C91.2492 109.751 91.2073 109.642 91.1654 109.524C91.127 109.405 91.1043 109.333 91.0973 109.309L91.0659 109.413C91.0205 109.588 90.9733 109.733 90.9244 109.848L90.3639 111.169H91.8412L91.2911 109.848Z" fill="white"/>
<path d="M98.0684 112.605C98.023 112.633 97.9637 112.647 97.8903 112.647C97.7471 112.647 97.6301 112.586 97.5393 112.464L96.9054 111.588C96.7902 111.431 96.6784 111.319 96.5702 111.253C96.4654 111.183 96.3396 111.139 96.193 111.122V110.928H96.6016C96.8496 110.928 97.0504 110.851 97.204 110.697C97.3577 110.54 97.4345 110.334 97.4345 110.079C97.4345 109.831 97.3612 109.628 97.2145 109.471C97.0678 109.31 96.8827 109.23 96.6592 109.23H95.7477V112.605H95.5276V109.02H96.6802C96.8653 109.02 97.0312 109.066 97.1778 109.157C97.328 109.248 97.445 109.373 97.5288 109.534C97.6127 109.691 97.6546 109.871 97.6546 110.074C97.6546 110.357 97.5795 110.587 97.4293 110.766C97.2791 110.94 97.0783 111.036 96.8269 111.054C96.7081 111.061 96.6156 111.064 96.5492 111.064C96.64 111.078 96.7081 111.097 96.7535 111.122C96.7989 111.146 96.8461 111.19 96.895 111.253C97.0067 111.4 97.1464 111.587 97.3141 111.814C97.4817 112.037 97.6144 112.217 97.7122 112.354C97.7576 112.416 97.8152 112.448 97.8851 112.448C97.927 112.448 97.9584 112.443 97.9794 112.432L98.0684 112.605Z" fill="white"/>
<path d="M101.374 109.23H100.117V109.015H102.862V109.23H101.61V112.6H101.374V109.23Z" fill="white"/>
<path d="M105.699 109.015H105.935V112.6H105.699V109.015Z" fill="white"/>
<path d="M110.026 112.715C109.858 112.715 109.687 112.68 109.513 112.61C109.338 112.54 109.184 112.443 109.051 112.317C108.922 112.191 108.833 112.048 108.784 111.887L108.989 111.808C109.065 112.022 109.203 112.191 109.402 112.317C109.602 112.443 109.809 112.505 110.026 112.505C110.197 112.505 110.352 112.469 110.492 112.395C110.635 112.319 110.747 112.214 110.827 112.081C110.911 111.948 110.953 111.8 110.953 111.636C110.953 111.468 110.896 111.326 110.78 111.211C110.665 111.092 110.476 110.956 110.215 110.802L109.942 110.65C109.75 110.549 109.6 110.463 109.492 110.393C109.387 110.32 109.301 110.235 109.235 110.137C109.168 110.035 109.135 109.913 109.135 109.77C109.135 109.606 109.177 109.461 109.261 109.335C109.345 109.206 109.458 109.108 109.602 109.041C109.748 108.972 109.909 108.937 110.084 108.937C110.304 108.937 110.489 108.989 110.639 109.094C110.789 109.199 110.866 109.337 110.869 109.508L110.639 109.497C110.628 109.382 110.564 109.295 110.445 109.235C110.33 109.176 110.204 109.146 110.068 109.146C109.942 109.146 109.825 109.174 109.717 109.23C109.609 109.282 109.521 109.356 109.455 109.45C109.389 109.544 109.355 109.646 109.355 109.754C109.355 109.922 109.418 110.06 109.544 110.168C109.673 110.273 109.85 110.381 110.073 110.493C110.164 110.535 110.234 110.572 110.283 110.603C110.597 110.792 110.826 110.963 110.969 111.117C111.112 111.267 111.184 111.442 111.184 111.641C111.184 111.85 111.13 112.037 111.021 112.202C110.916 112.366 110.775 112.493 110.597 112.584C110.422 112.671 110.232 112.715 110.026 112.715Z" fill="white"/>
<path d="M114.833 109.23H113.576V109.015H116.321V109.23H115.069V112.6H114.833V109.23Z" fill="white"/>
<path d="M101.86 0.0109318L101.83 17.3205L100.806 17.3358C100.806 17.3358 99.4854 15.1958 98.8262 14.4272C96.9272 11.8658 92.7362 11.2959 90.2609 13.4031C89.892 13.7306 89.5733 14.1128 89.3113 14.5298C89.3201 13.7415 89.1804 12.9533 88.8835 12.2217C88.8027 12.0034 88.7045 11.7872 88.615 11.5688C88.7001 11.5841 88.7809 11.5972 88.866 11.6038C90.1037 11.6627 91.3021 11.1125 92.5113 10.9137C95.146 10.3416 97.892 11.1823 99.7277 13.0384C101.232 14.2831 100.476 11.4749 99.9744 10.9793C99.6862 10.5775 99.2999 10.239 98.8851 9.95951C97.9487 9.31535 96.663 8.90482 96.4295 8.26284C96.0737 6.89371 99.2409 5.76041 99.9918 6.8151C100.245 7.17976 100.238 7.77589 100.321 8.16676C100.422 8.57291 100.658 8.08378 100.756 7.8283C100.981 7.24964 100.944 6.53778 100.817 5.92418C100.492 4.55068 100.153 3.3344 100.664 2.00676C100.821 1.50889 101.046 0.908401 101.277 0.482595C101.422 0.222744 101.664 0.0043809 101.812 0.00219727C101.828 0.00219727 101.843 0.00656446 101.858 0.00874807L101.86 0.0109318Z" fill="white"/>
<path d="M97.9094 18.3534C98.0709 20.2313 96.7853 22.452 94.86 23.1202C92.4349 23.8845 89.5733 23.1399 88.0977 21.0829C87.6699 20.5741 87.3381 20.002 87.1089 19.3928C87.6742 18.8993 88.1413 18.3075 88.495 17.6568C88.5364 18.432 88.7613 19.194 89.1956 19.8601C89.9793 21.1375 91.4832 22.1463 93.0723 21.8624C94.5086 21.679 96.1479 20.2444 95.5651 18.7944C95.4123 18.3555 94.7574 18.0848 94.4584 18.1787C93.9978 18.3206 94.4038 19.2421 94.1943 19.705C93.7381 20.6003 92.3236 20.133 91.6273 19.5172C90.9921 18.9626 90.7236 18.0629 90.9397 17.2681C91.2388 16.1217 92.3956 15.4338 93.5744 15.2832C95.6153 14.9098 97.7588 16.3204 97.9094 18.3534Z" fill="white"/>
<path d="M88.8835 12.2217C89.1804 12.9533 89.3201 13.7415 89.3113 14.5298C88.7307 15.4622 88.4338 16.5759 88.495 17.6568C88.1392 18.3075 87.6742 18.9014 87.1089 19.3928C86.895 18.8294 86.7662 18.2332 86.7269 17.6306C87.194 17.1414 87.5607 16.5606 87.7899 15.9535C88.3815 14.3115 87.9383 12.5143 86.895 11.1277L87.2224 10.9268C87.5302 11.1998 88.0606 11.4684 88.615 11.5688C88.7045 11.7872 88.8027 12.0012 88.8835 12.2217Z" fill="white"/>
<path d="M88.6543 9.88962C88.7875 10.2587 88.6478 10.6168 88.3684 10.798C88.3509 10.7063 88.34 10.6102 88.3378 10.5163C88.3487 10.2456 88.4557 10.0141 88.615 9.79791C88.6303 9.82629 88.6434 9.85686 88.6565 9.88962H88.6543Z" fill="white"/>
<path d="M86.895 11.1277C87.9362 12.5143 88.3815 14.3115 87.7899 15.9535C87.5629 16.5606 87.1962 17.1414 86.7269 17.6306C86.6636 16.6785 86.8207 15.7112 87.2027 14.8246C87.9973 13.1148 86.7553 13.0821 86.0022 11.7523C85.7402 11.2413 85.6791 10.6124 85.904 10.0883C86.275 10.3962 86.609 10.7478 86.895 11.1299V11.1277Z" fill="white"/>
<path d="M87.886 10.9247C87.5454 10.9225 87.1285 10.7718 87.1569 10.8613C87.1765 10.881 87.2006 10.9028 87.2246 10.9247L86.8971 11.1256C86.6112 10.7434 86.2772 10.3919 85.9062 10.084C85.9695 9.93546 86.0546 9.79571 86.1659 9.66906C86.478 9.26291 86.9954 9.08167 87.4843 9.11006C87.9602 9.13844 88.4098 9.36991 88.615 9.79353C88.4579 10.0075 88.3509 10.239 88.3378 10.512C88.34 10.608 88.3509 10.7019 88.3684 10.7936C88.2352 10.881 88.0693 10.929 87.886 10.9203V10.9247Z" fill="white"/>
<path d="M94.86 24.3539C95.5433 24.2994 92.5659 26.8673 89.4729 26.8476C87.373 26.8345 86.096 26.7035 84.9392 26.4065C83.8237 26.1183 82.907 25.8803 81.8134 24.8802C80.6412 23.808 80.0933 21.5545 81.4314 20.3252C81.6933 20.085 82.9091 19.4102 83.1776 19.5281C83.3282 19.5936 82.6581 20.2444 82.5053 20.5566C82.4617 20.6462 82.4137 21.2467 82.645 21.1397C83.612 20.5916 82.645 22.9215 83.0947 23.38C84.3738 24.474 84.4175 22.7948 85.1203 23.1224C85.7293 23.4543 85.5067 24.2426 85.8756 24.747C88.7722 26.0812 92.0071 25.1815 94.86 24.3561V24.3539Z" fill="white"/>
<path d="M103.196 11.3024C102.823 11.8047 102.207 15.1063 103.609 13.711C105.348 11.7086 107.778 10.6473 110.559 11.0251C112.316 11.1474 115.505 12.879 116.535 10.8766L116.503 10.8613C116.166 11.1976 115.474 11.5404 114.791 11.6016C113.556 11.6605 112.357 11.1103 111.148 10.9116C108.514 10.3395 105.768 11.1801 103.93 13.0362C102.426 14.2809 103.181 11.4728 103.683 10.9771C103.971 10.5753 104.357 10.2368 104.774 9.95732C105.709 9.31315 106.994 8.90263 107.23 8.26065C107.586 6.89151 104.419 5.75821 103.668 6.8129C103.414 7.17757 103.421 7.7737 103.338 8.16457C103.238 8.57072 103.002 8.08159 102.904 7.8261C102.679 7.24744 102.718 6.53558 102.843 5.92199C103.17 4.54849 103.508 3.33221 102.995 2.00457C102.838 1.5067 102.613 0.906204 102.382 0.480397C102.238 0.220546 101.996 0.00218362 101.849 0C101.832 0 101.817 0.0043674 101.801 0.00655102V0.456377C101.838 0.434541 101.873 0.423623 101.906 0.423623C102.227 0.495683 102.393 1.11146 102.559 1.46958C103.829 4.24933 101.895 5.69489 102.725 8.01171C103.032 8.69519 103.541 8.83057 103.65 8.00953C103.746 7.50074 103.79 6.826 104.419 6.68407C105.187 6.5072 106.152 6.84129 106.676 7.37846C107.677 8.61221 105.442 9.12099 104.523 9.85906C103.982 10.2412 103.5 10.7216 103.198 11.3002L103.196 11.3024Z" fill="white"/>
<path d="M113.396 13.4009C115.184 14.9797 115.769 17.8446 114.462 19.8579C113.678 21.1353 112.176 22.1441 110.585 21.8602C109.147 21.6768 107.509 20.2422 108.092 18.7923C108.243 18.3533 108.898 18.0826 109.197 18.1765C109.657 18.3184 109.251 19.2399 109.463 19.7028C109.919 20.5981 111.334 20.1308 112.03 19.515C112.665 18.9604 112.932 18.0607 112.718 17.2659C112.419 16.1195 111.262 15.4317 110.083 15.281C108.042 14.9076 105.898 16.3182 105.75 18.3512C105.586 20.2291 106.874 22.4498 108.799 23.118C111.227 23.8823 114.086 23.1377 115.564 21.0807C116.332 20.1679 116.784 19.0499 116.909 17.8926L116.765 17.8773C116.867 16.8685 116.692 15.8291 116.267 14.9054C116.083 14.4731 115.747 13.9643 115.715 13.5647C115.682 12.7087 117.398 12.5362 117.64 11.2697C118.017 10.1604 116.832 8.86113 115.697 9.55116C115.289 9.80446 115.204 10.2739 115.37 10.4552C115.573 10.6626 115.944 10.5928 116.208 10.5949C116.435 10.5862 116.592 10.619 116.603 10.7434C116.583 10.7915 116.562 10.8351 116.538 10.8788C115.505 12.8812 112.316 11.1474 110.561 11.0273C107.782 10.6495 105.351 11.7108 103.611 13.7132C102.212 15.1085 102.827 11.8047 103.198 11.3046C103.5 10.726 103.982 10.2456 104.523 9.86342C105.442 9.12317 107.677 8.61438 106.676 7.38282C106.152 6.84565 105.187 6.51155 104.419 6.68843C103.79 6.83255 103.746 7.5051 103.65 8.01389C103.541 8.83493 103.032 8.70173 102.725 8.01607C101.895 5.69925 103.827 4.25369 102.559 1.47394C102.393 1.118 102.229 0.502222 101.906 0.427979C101.873 0.427979 101.838 0.438897 101.801 0.460734L101.832 17.3183L102.856 17.3336C102.856 17.3336 104.176 15.1936 104.835 14.425C106.735 11.8636 110.926 11.2937 113.401 13.4009H113.396Z" fill="white"/>
<path d="M115.712 13.5647C115.745 13.9643 116.081 14.4731 116.265 14.9054C116.69 15.8313 116.865 16.8685 116.762 17.8773L116.906 17.8926C117.02 16.8576 116.871 15.792 116.455 14.8224C115.658 13.1127 116.9 13.0799 117.655 11.7501C117.989 11.0972 117.996 10.2434 117.494 9.6713C116.854 8.84152 115.363 8.94633 115.005 9.88966C114.809 10.4377 115.21 10.9552 115.774 10.9247C116.114 10.9225 116.531 10.7718 116.505 10.8613L116.537 10.8766C116.562 10.833 116.583 10.7893 116.603 10.7412C116.592 10.619 116.435 10.584 116.208 10.5928C115.944 10.5906 115.573 10.6604 115.37 10.453C115.204 10.2696 115.289 9.80013 115.697 9.54901C116.832 8.85898 118.017 10.1582 117.64 11.2675C117.395 12.5362 115.682 12.7065 115.715 13.5625L115.712 13.5647Z" fill="white"/>
<path d="M110.356 24.1006C109.673 24.0461 112.65 26.614 115.743 26.5943C117.843 26.5812 119.122 26.4502 120.277 26.1532C121.392 25.865 122.309 25.627 123.402 24.6269C124.577 23.5547 125.122 21.3012 123.784 20.0719C123.522 19.8317 122.307 19.1569 122.04 19.2748C121.89 19.3403 122.558 19.9911 122.711 20.3033C122.754 20.3929 122.802 20.9934 122.571 20.8864C121.604 20.3383 122.571 22.6682 122.123 23.1268C120.842 24.2207 120.801 22.5415 120.095 22.8691C119.486 23.201 119.709 23.9893 119.34 24.4937C116.444 25.8279 113.209 24.9282 110.356 24.1028V24.1006Z" fill="white"/>
<path d="M101.904 20.6898V28.2495H101.928C129.169 28.0181 155.106 33.5667 178.309 45.2687C178.477 44.9433 178.697 44.6464 178.927 44.3581C166.137 38.1348 151.799 32.6604 137.741 30.693C146.769 29.1383 144.661 30.0663 155.651 27.3761C153.512 30.0554 157.932 34.1431 159.273 30.3655C159.559 29.3151 158.133 28.433 157.472 29.3894C157.271 29.6383 157.267 30.1122 157.681 30.0292C157.873 30.0052 158.046 30.3676 157.849 30.6428C156.586 31.573 155.116 28.6011 156.799 27.4722C158.216 26.4131 159.919 26.1183 161.436 25.2339C161.866 24.2469 160.777 24.7448 160.436 24.9042C156.197 26.662 149.577 28.4199 145.879 25.3671C145.615 25.5549 142.515 28.4875 140.317 29.2409C139.739 28.8042 141.452 28.0355 141.579 26.5878C141.659 24.5614 139.706 22.773 137.586 23.0765C137.025 23.0569 135.788 23.6334 135.888 24.212C136.696 23.9936 137.685 24.9392 137.783 25.5811C137.757 31.4114 126.343 28.433 122.532 27.8565C125.882 26.9437 129.276 23.9827 129.593 20.5239C129.763 18.4341 127.866 16.0999 125.843 16.9122C123.466 17.8642 125.168 22.0917 127.148 20.2378C127.738 19.6526 127.288 18.3162 126.406 18.5804C126.055 18.694 126.092 19.1198 126.365 19.3076C126.48 19.4386 126.402 19.6308 126.301 19.6744C124.481 20.0085 125.705 16.399 127.748 18.504C129.067 20.3514 127.7 22.8145 126.314 24.14C120.347 30.2934 110.764 27.1883 104.89 22.8451C103.486 21.9192 102.86 20.6833 102.86 20.6833H101.906L101.904 20.6898Z" fill="white"/>
<path d="M179.049 44.4324C178.831 44.7053 178.619 44.9848 178.455 45.2927C178.682 45.3298 179.103 45.3888 179.217 45.3429C179.372 45.2796 183.718 48.2319 183.718 48.2319L186.979 50.4679L189.71 52.3021L190.797 51.8348L189.275 50.7168L187.164 49.4132L184.277 47.5178L179.051 44.4324H179.049Z" fill="white"/>
<path d="M178.307 45.2687C178.307 45.2687 178.366 45.2796 178.455 45.2927C178.619 44.9848 178.831 44.7053 179.049 44.4324L178.924 44.3581C178.695 44.6464 178.475 44.9433 178.307 45.2687Z" fill="white"/>
<path d="M101.945 18.0324C101.906 18.028 101.865 18.0258 101.825 18.0258C101.179 18.0258 100.658 18.5259 100.658 19.1438C100.658 19.7247 101.12 20.2007 101.714 20.2553C101.753 20.2597 101.795 20.2618 101.834 20.2618C102.48 20.2618 103.002 19.7618 103.002 19.1438C103.002 18.563 102.539 18.0869 101.945 18.0324Z" fill="white"/>
<path d="M101.98 20.6898H101.716V28.2495H101.98V20.6898Z" fill="white"/>
<path d="M93.3015 125.643C93.9847 125.7 91.0074 123.13 87.9143 123.15C85.8145 123.163 84.5375 123.294 83.3806 123.593C82.2652 123.879 81.3484 124.119 80.2549 125.119C79.0827 126.189 78.5348 128.445 79.8729 129.672C80.1348 129.915 81.3506 130.587 81.6191 130.469C81.7697 130.404 81.0996 129.753 80.9468 129.441C80.9031 129.351 80.8551 128.753 81.0865 128.86C82.0535 129.408 81.0865 127.078 81.5362 126.62C82.8153 125.526 82.8589 127.205 83.5618 126.877C84.1708 126.548 83.9482 125.757 84.3171 125.253C87.2136 123.918 90.4486 124.818 93.3015 125.643Z" fill="white"/>
<path d="M101.775 129.056V121.497H101.753C86.0524 121.525 70.4409 119.835 55.2442 115.804C41.1258 112.059 24.7875 106.572 13.2906 97.2782C11.5313 95.2671 10.8524 94.0465 8.28542 93.2123C7.02158 92.8018 4.63795 91.9414 3.42212 92.0921C5.54382 94.1578 7.0565 94.1185 8.19375 96.6515C8.43167 97.18 9.30916 96.6297 9.14545 97.5381C9.05377 98.5775 8.29634 98.715 8.08024 99.2304C7.84013 99.8025 7.8183 100.532 8.28542 100.993C8.47969 101.399 10.2762 102.408 10.25 101.573C8.80712 100.674 10.1234 99.7304 11.2715 99.702C13.1073 99.6584 15.7747 100.167 17.2262 101.514C17.3048 101.7 17.1913 101.77 17.0451 101.831C15.6633 102.421 14.2838 103.056 13.6879 104.336C11.743 108.506 18.9288 109.389 17.617 105.993C17.1848 105.205 15.0478 105.275 15.4669 106.41C15.4756 106.425 15.4865 106.439 15.4974 106.452C15.8227 106.862 16.65 106.432 16.8093 107.05C16.8355 107.524 16.2723 107.674 15.9362 107.478C15.4865 107.216 15.1264 106.862 14.9976 106.556C13.9695 104.141 18.3351 102.226 20.2298 103.028C21.1946 103.436 22.2074 104.074 23.1897 104.615C23.2071 104.624 23.2137 104.63 23.2311 104.639C36.841 111.284 50.9179 116.712 65.94 119.053C59.9154 120.099 53.9891 120.931 48.03 122.37C50.0993 119.551 45.4369 115.955 44.4109 119.381C44.1053 120.401 45.5395 121.261 46.2118 120.359C46.3951 120.112 46.4148 119.636 46 119.717C45.8079 119.741 45.6355 119.379 45.832 119.104C47.0958 118.173 48.4972 121.13 46.8841 122.274C45.474 123.274 43.7648 123.628 42.2456 124.51C41.8156 125.499 42.9092 124.988 43.2453 124.84C47.3534 123.025 53.7599 121.169 57.8025 124.375C59.492 122.879 61.271 121.394 63.3643 120.501C63.9427 120.938 62.1943 121.737 62.1048 123.154C61.9804 125.133 63.9776 126.969 66.0971 126.665C66.6581 126.685 67.898 126.109 67.7954 125.53C66.9877 125.746 65.9989 124.803 65.9029 124.161C65.7326 118.025 77.9913 121.342 81.152 121.885C77.7402 122.737 74.418 125.879 74.0906 129.218C73.9051 131.1 75.8958 133.677 77.8407 132.828C79.7528 131.993 78.3864 127.995 76.5353 129.502C75.9569 129.974 76.4087 131.43 77.2775 131.159C77.6267 131.05 77.5918 130.62 77.319 130.43C77.2011 130.299 77.2819 130.107 77.3801 130.065C79.2006 129.731 77.9782 133.341 75.9329 131.236C74.7869 129.456 76.0879 126.829 77.367 125.6C83.0532 120.134 93.0679 122.903 98.7913 126.897C100.132 127.831 100.821 129.056 100.821 129.056H101.775Z" fill="white"/>
<path d="M110.356 125.643C109.673 125.7 112.65 123.13 115.743 123.15C117.843 123.163 119.122 123.294 120.277 123.593C121.392 123.879 122.309 124.119 123.402 125.119C124.577 126.189 125.122 128.445 123.784 129.672C123.522 129.915 122.307 130.587 122.04 130.469C121.89 130.404 122.558 129.753 122.711 129.441C122.754 129.351 122.802 128.753 122.571 128.86C121.604 129.408 122.571 127.078 122.123 126.62C120.842 125.526 120.801 127.205 120.095 126.877C119.486 126.548 119.709 125.757 119.34 125.253C116.444 123.918 113.209 124.818 110.356 125.643Z" fill="white"/>
<path d="M101.904 129.056V121.497H101.928C117.618 121.525 133.256 119.859 148.437 115.804C162.287 112.103 179.426 106.76 190.375 97.145C192.639 94.9505 196.193 90.022 199.757 90.509C197.411 92.3127 196.315 93.8565 195.468 96.4965C195.263 97.1406 194.398 96.5947 194.551 97.5162C194.636 98.5753 195.385 98.715 195.599 99.2304C195.837 99.8025 195.863 100.532 195.396 100.993C195.202 101.399 193.405 102.408 193.431 101.573C194.872 100.674 193.558 99.7304 192.408 99.702C190.574 99.6584 187.907 100.167 186.455 101.514C186.376 101.7 186.488 101.77 186.634 101.831C188.018 102.421 189.36 103.043 189.991 104.336C192.052 108.563 184.794 109.4 186.064 105.993C186.497 105.205 188.634 105.275 188.214 106.41C188.206 106.425 188.195 106.439 188.184 106.452C187.856 106.862 187.029 106.432 186.87 107.05C186.846 107.524 187.407 107.672 187.743 107.478C188.193 107.216 188.557 106.86 188.684 106.556C189.666 104.2 185.394 102.191 183.449 103.028C182.482 103.445 181.474 104.074 180.492 104.615C180.474 104.624 180.468 104.63 180.45 104.639C166.84 111.282 152.763 116.712 137.741 119.053C143.764 120.11 149.69 120.931 155.651 122.37C153.717 119.451 158.308 115.911 159.27 119.381C159.561 120.425 158.142 121.259 157.47 120.357C157.286 120.11 157.264 119.636 157.679 119.717C157.871 119.741 158.046 119.379 157.847 119.104C156.586 118.173 155.184 121.13 156.797 122.274C158.205 123.272 159.916 123.628 161.434 124.51C161.866 125.499 160.77 124.988 160.436 124.84C156.337 123.023 149.921 121.167 145.879 124.375C144.185 122.883 142.413 121.385 140.315 120.501C139.739 120.938 141.489 121.737 141.577 123.154C141.699 125.13 139.704 126.969 137.582 126.665C137.023 126.685 135.783 126.109 135.884 125.53C136.691 125.746 137.68 124.803 137.778 124.161C137.768 118.003 125.795 121.331 122.527 121.885C125.712 122.868 129.377 125.639 129.589 129.218C129.706 131.188 127.772 133.681 125.838 132.828C123.985 132.011 125.243 127.978 127.144 129.502C127.724 129.967 127.27 131.43 126.402 131.159C126.055 131.05 126.087 130.62 126.36 130.43C126.478 130.299 126.399 130.107 126.299 130.065C124.479 129.731 125.703 133.341 127.746 131.236C128.894 129.458 127.631 126.829 126.314 125.6C120.491 120.16 110.698 122.796 104.89 126.897C103.563 127.834 102.86 129.056 102.86 129.056H101.904Z" fill="white"/>
<path d="M101.712 129.491C101.751 129.487 101.793 129.484 101.832 129.484C102.478 129.484 103 129.985 103 130.602C103 131.183 102.537 131.659 101.943 131.714C101.904 131.718 101.862 131.72 101.823 131.72C101.177 131.72 100.655 131.22 100.655 130.602C100.655 130.022 101.118 129.546 101.712 129.491Z" fill="white"/>
<path d="M101.98 121.495H101.716V129.054H101.98V121.495Z" fill="white"/>
<path d="M188.38 51.1798C189.21 51.3326 189.625 51.4069 190.454 51.5597C191.257 52.3436 192.054 53.121 192.886 53.8765C194.953 55.5667 201.141 53.5097 198.203 50.7212C197.91 50.4439 197.349 50.4395 197.249 50.9024C197.238 51.5619 198.21 51.3326 198.373 51.8763C198.478 53.0817 196.398 52.5838 196.19 51.7082C195.848 47.9131 202.761 50.6819 199.539 54.3482C198.513 55.4313 197.129 55.6715 195.638 55.8724C195.481 55.8942 195.352 55.9313 195.381 56.13C196.424 57.8136 198.738 59.0735 200.626 59.4688C201.75 59.8509 203.274 59.1718 202.121 57.9206C202.318 57.1083 203.782 58.5582 203.863 59.0015C204.193 59.5692 203.889 60.3073 203.361 60.9362C202.885 61.5083 202.093 61.541 201.7 62.3708C201.281 63.0761 202.309 62.7508 202.309 63.2377C202.793 65.9716 202.324 68.688 202.872 71.3979C201.752 70.4655 201.87 67.9434 201.025 66.3996C200.135 64.775 199.216 62.8206 198.192 61.2179C195.23 57.5843 191.853 54.3897 188.409 51.2125" fill="white"/>
<path d="M15.6197 51.1798C14.7902 51.3326 14.3755 51.4069 13.546 51.5597C12.7427 52.3436 11.946 53.121 11.1144 53.8765C9.04724 55.5667 2.85898 53.5097 5.79704 50.7212C6.08954 50.4439 6.65052 50.4395 6.75093 50.9024C6.76184 51.5619 5.79049 51.3326 5.62678 51.8763C5.52201 53.0817 7.60222 52.5838 7.80959 51.7082C8.15229 47.9131 1.23933 50.6819 4.46116 54.3482C5.48708 55.4313 6.87098 55.6715 8.36184 55.8724C8.519 55.8942 8.64779 55.9313 8.61941 56.13C7.57603 57.8136 5.26225 59.0735 3.37412 59.4688C2.24998 59.8509 0.726375 59.1718 1.8789 57.9206C1.68245 57.1083 0.21778 58.5582 0.137016 59.0015C-0.192588 59.5692 0.110823 60.3073 0.639063 60.9362C1.11492 61.5083 1.90727 61.541 2.30018 62.3708C2.71928 63.0761 1.69118 62.7508 1.69118 63.2377C1.20659 65.9716 1.6759 68.688 1.12801 71.3979C2.24779 70.4655 2.12992 67.9434 2.97467 66.3996C3.86525 64.775 4.78422 62.8206 5.80796 61.2179C8.77003 57.5843 12.1468 54.3897 15.5913 51.2125" fill="white"/>
<path d="M93.3015 24.0548C93.9847 24.0002 91.0074 26.5681 87.9143 26.5485C85.8145 26.5354 84.5353 26.4022 83.3806 26.1052C82.2652 25.817 81.3484 25.579 80.2549 24.5789C79.0805 23.5089 78.5348 21.2532 79.8729 20.0238C80.1348 19.7836 81.3506 19.1089 81.6191 19.2268C81.7697 19.2945 81.0996 19.943 80.9468 20.2575C80.9031 20.347 80.8551 20.9453 81.0865 20.8383C82.0535 20.2902 81.0865 22.6201 81.5362 23.0787C82.8153 24.1727 82.8589 22.4935 83.5618 22.821C84.1708 23.1508 83.9482 23.9391 84.3171 24.4457C87.2136 25.7799 90.4486 24.8802 93.3015 24.0548Z" fill="white"/>
<path d="M101.751 20.6855V28.2452H101.727C74.4857 28.0137 48.5495 33.5623 25.3463 45.2643C25.1782 44.939 24.9577 44.642 24.7285 44.3537C37.5176 38.1304 51.8565 32.6561 65.9138 30.6886C56.8857 29.1339 58.9943 30.0619 48.0038 27.3717C50.143 30.051 45.7228 34.1388 44.3826 30.3611C44.0966 29.3108 45.522 28.4286 46.1834 29.385C46.3842 29.6339 46.3886 30.1078 45.9738 30.0248C45.7817 30.0008 45.6093 30.3633 45.8058 30.6384C47.0696 31.5686 48.5386 28.5967 46.8557 27.4678C45.439 26.4087 43.7365 26.1139 42.2194 25.2296C41.7894 24.2426 42.8786 24.7404 43.2191 24.8999C47.4581 26.6577 54.0786 28.4155 57.7763 25.3628C58.0404 25.5506 61.14 28.4832 63.3381 29.2365C63.9165 28.7998 62.203 28.0312 62.0764 26.5834C61.9957 24.557 63.9493 22.7686 66.0688 23.0722C66.6298 23.0525 67.8674 23.629 67.767 24.2076C66.9594 23.9893 65.9706 24.9348 65.8723 25.5768C65.8985 31.407 77.3124 28.4286 81.1236 27.8521C77.773 26.9394 74.3787 23.9784 74.0622 20.5195C73.892 18.4298 75.7888 16.0955 77.8123 16.9078C80.1894 17.8599 78.4868 22.0873 76.507 20.2334C75.9176 19.6482 76.3673 18.3119 77.2491 18.5761C77.6006 18.6896 77.5634 19.1154 77.2906 19.3032C77.1749 19.4342 77.2535 19.6264 77.3539 19.6701C79.1744 20.0042 77.9498 16.3946 75.9067 18.4997C74.5883 20.347 75.9547 22.8101 77.3408 24.1356C83.3086 30.289 92.8911 27.1839 98.7651 22.8407C100.169 21.9148 100.795 20.6789 100.795 20.6789H101.749L101.751 20.6855Z" fill="white"/>
<path d="M25.2219 45.3276C25.0516 45.0001 24.829 44.7075 24.5998 44.4193L24.5954 44.4083C24.6412 44.3887 24.6871 44.3712 24.7307 44.3537C24.9599 44.642 25.1804 44.939 25.3485 45.2643L25.224 45.332L25.2219 45.3276Z" fill="white"/>
<path d="M24.5998 44.4193C24.8311 44.7075 25.0538 45.0001 25.2219 45.3276L19.9919 48.1401L15.707 51.3392L14.465 51.9921L13.5438 51.5422L15.6961 49.9023C15.6961 49.9023 21.8669 45.5023 24.591 44.4062L24.5954 44.4171L24.5998 44.4193Z" fill="white"/>
<path d="M93.6966 99.1932V48.6926C93.6966 46.6378 95.4712 46.378 96.0104 46.378V46.0199H88.5146V46.378C88.8726 46.378 91.0074 46.4588 91.0074 48.6926V49.7691L78.2467 82.8379C73.6802 94.6251 66.6232 100.53 55.277 100.53C39.7463 100.53 26.4268 87.2052 26.2478 71.7473C26.0884 57.9053 36.7144 47.354 50.4726 47.354C61.5373 47.354 71.4472 54.156 76.3716 63.6286H79.1438C75.0358 53.2564 64.9272 45.7578 52.7864 45.7578C37.3343 45.7578 24.6543 58.4425 24.6543 73.9003C24.6543 89.3582 37.0767 102.124 53.2251 102.124C64.5692 102.124 72.7242 96.9572 77.9891 84.5324H91.0096V99.1932C91.0096 101.069 90.1321 101.508 88.5168 101.508V101.866H96.1937V101.508C94.5981 101.508 93.701 101.069 93.701 99.1932H93.6966ZM91.0052 84.1743H78.1463L91.0052 50.7452V84.1743Z" fill="white"/>
<path d="M136.637 46.378C137.176 46.378 138.97 46.378 138.97 48.1532V92.3913C138.97 98.0163 135.84 101.766 130.038 101.766C124.775 101.766 122.621 96.859 122.621 91.8519V48.6904C122.621 46.8147 123.518 46.3758 125.133 46.3758V46.0177H117.417V46.3758C119.032 46.3758 119.93 46.8147 119.93 48.6904V91.8519C119.93 97.3961 123.518 102.124 130.038 102.124C135.94 102.124 139.33 98.4727 139.33 92.3913V48.1532C139.33 46.378 141.105 46.378 141.742 46.378V46.0199H136.639V46.378H136.637Z" fill="white"/>
<path d="M161.665 99.4531V48.2537C161.665 46.378 162.383 46.378 163.199 46.378V46.0199H159.77V46.378C160.589 46.378 161.305 46.378 161.305 48.2537V99.0338L147.728 48.6118C147.25 46.8365 148.625 46.378 149.86 46.378V46.0199H142.183V46.378C142.502 46.378 143.899 46.2775 144.416 47.4545V99.6322C144.416 101.508 143.698 101.508 142.901 101.508V101.866H146.291V101.508C145.495 101.508 144.777 101.508 144.777 99.6322V47.9939L158.594 99.5339C159.133 101.608 157.657 101.508 156.42 101.508V101.866H164.097V101.508C163.996 101.508 162.481 101.329 161.665 99.4531Z" fill="white"/>
<path d="M96.4164 46.378C98.0317 46.378 98.9288 46.8169 98.9288 48.6926V99.1932C98.9288 101.069 98.0317 101.508 96.4164 101.508V101.866H104.133V101.508C102.598 101.508 101.62 101.069 101.62 99.1932V74.1624H107.313C110.404 74.1624 111.6 76.9552 111.6 79.2677H111.958V68.616H111.6C111.6 70.9284 110.404 73.8021 107.313 73.8021H101.62V48.6904C101.62 46.6356 103.414 46.3758 103.954 46.3758H112.347C115.536 46.3758 116.634 49.2887 116.634 51.5619H116.992V46.0177H96.4164V46.378Z" fill="white"/>
<path d="M194.99 57.2961C189.867 51.706 182.642 45.9631 173.321 41.6635C154.243 32.8592 128.897 28.005 101.939 27.994V20.6876H101.675V27.994C74.7433 28.0137 49.4205 32.8657 30.358 41.6635C21.0396 45.9653 14.0328 51.4265 8.90973 57.0166C3.56184 62.8512 0.532104 68.616 0.532104 75.0336C0.532104 81.4513 3.7954 87.4519 9.14329 93.2887C14.2663 98.8788 21.0396 104.104 30.358 108.406C49.4598 117.221 74.7847 121.571 101.78 121.571C128.774 121.571 154.219 117.221 173.321 108.406C182.642 104.104 189.432 98.798 194.555 93.2079C199.903 87.3733 203.147 81.4513 203.147 75.0358C203.147 68.6203 200.338 63.1329 194.99 57.2983V57.2961ZM101.841 121.003C46.5697 121.003 1.60386 100.381 1.60386 75.0315C1.60386 49.6818 46.5697 29.0597 101.841 29.0597C157.112 29.0597 202.077 49.6818 202.077 75.0315C202.077 100.381 157.112 121.003 101.841 121.003Z" fill="white"/>
<path d="M101.823 20.2553C101.865 20.2553 101.904 20.2553 101.943 20.2487C102.535 20.1941 103 19.7181 103 19.1373C103 18.5193 102.476 18.0193 101.832 18.0193C101.79 18.0193 101.751 18.0193 101.712 18.0258C101.12 18.0804 100.655 18.5564 100.655 19.1373C100.655 19.7552 101.179 20.2553 101.823 20.2553Z" fill="white"/>
</svg>
